<!DOCTYPE svg PUBLIC "-//W3C//DTD SVG 1.1//EN" "http://www.w3.org/Graphics/SVG/1.1/DTD/svg11.dtd">
<!-- Uploaded to: SVG Repo, www.svgrepo.com, Transformed by: SVG Repo Mixer Tools -->
<svg width="800px" height="800px" viewBox="0 0 24 24" fill="none" xmlns="http://www.w3.org/2000/svg" stroke="#2563EB">
<g id="SVGRepo_bgCarrier" stroke-width="0"/>
<g id="SVGRepo_tracerCarrier" stroke-linecap="round" stroke-linejoin="round"/>
<g id="SVGRepo_iconCarrier"> <path d="M4 13V17C4 18.1046 4.89543 19 6 19V19C7.10457 19 8 18.1046 8 17V15C8 13.8954 7.10457 13 6 13H4ZM4 13V10C4 5.58172 7.58172 2 12 2V2C16.4183 2 20 5.58172 20 10V13M20 13V17C20 18.1046 19.1046 19 18 19V19C16.8954 19 16 18.1046 16 17V15C16 13.8954 16.8954 13 18 13H20Z" stroke="#2563EB" stroke-width="2" stroke-linecap="round" stroke-linejoin="round"/> </g>
</svg>